inDegrees=yes
name=ik_S57_A11_T01
DataType=double
version=3
OpenSimVersion=4.3-2021-08-27-4bc7ad9
endheader
time	pelvis_tilt	pelvis_list	pelvis_rotation	pelvis_tx	pelvis_ty	pelvis_tz	hip_flexion_r	hip_adduction_r	hip_rotation_r	knee_angle_r	knee_angle_r_beta	ankle_angle_r	subtalar_angle_r	mtp_angle_r	hip_flexion_l	hip_adduction_l	hip_rotation_l	knee_angle_l	knee_angle_l_beta	ankle_angle_l	subtalar_angle_l	mtp_angle_l	lumbar_extension	lumbar_bending	lumbar_rotation	arm_flex_r	arm_add_r	arm_rot_r	elbow_flex_r	pro_sup_r	wrist_flex_r	wrist_dev_r	arm_flex_l	arm_add_l	arm_rot_l	elbow_flex_l	pro_sup_l	wrist_flex_l	wrist_dev_l
8.579999999999906	4.082490651423027	0.06705337794175768	47.5929857028081	0	0.9399999999999999	0	34.00714807909721	-9.644531840855784	-9.133661789253038	39.45211263673361	0.6885692623786631	0	0	0	34.00714807909721	-9.644531840855784	-9.133661789253038	39.45211263673361	0.6885692623786631	0	0	0	2.849477345474005	-2.138094524997176	12.35135246570428	100.3947532232833	5.63988610347059	14.34897534775798	21.97882388350058	82.8662857862348	0	0	1.449182543640805	-6.885225979213637	-0.07419416873033689	3.907961723352714	97.62617825202888	0	0
8.599999999999905	4.078806971461756	0.07345830334001069	47.56301795860627	0	0.9399999999999999	0	34.00975108259029	-9.644818215287005	-9.134110343616527	39.45468162557464	0.688614099692386	0	0	0	34.00975108259029	-9.644818215287005	-9.134110343616527	39.45468162557464	0.688614099692386	0	0	0	2.851721154041636	-2.130521753924756	12.3628281958938	100.4220620851801	5.605557694177334	14.41365674853672	21.75532077707033	83.06805465085353	0	0	1.422146181242607	-6.859057158844971	-0.08948819653092918	3.940731922877723	97.64676815040703	0	0
8.619999999999905	4.074031850398949	0.08792292735750026	47.47374728162454	0	0.9399999999999999	0	34.01316527624629	-9.645195691163821	-9.134700628051466	39.45803453413331	0.6886726189862532	0	0	0	34.01316527624629	-9.645195691163821	-9.134700628051466	39.45803453413331	0.6886726189862532	0	0	0	2.85921560054777	-2.119496761421315	12.31965756618506	100.4024577208926	5.653447204939198	14.43547522869268	21.59621114865881	83.16220783430151	0	0	1.401096227043283	-6.837726645954759	-0.1914938577338626	3.945632546636125	97.60437964304521	0	0
8.639999999999905	4.063132038651718	0.0826859451184037	47.42614375704698	0	0.9399999999999999	0	34.01332025231645	-9.645211692167804	-9.134726265397758	39.4581960713429	0.6886754383424251	0	0	0	34.01332025231645	-9.645211692167804	-9.134726265397758	39.4581960713429	0.6886754383424251	0	0	0	2.848009541019785	-2.116070628658974	12.29929197677305	100.3942052025248	5.645188916674885	14.43289371429601	21.5909777176677	83.15813610679851	0	0	1.40381083781714	-6.84035654870664	-0.1920454072488116	3.946326087513515	97.6037696460416	0	0
8.659999999999904	4.055749215159564	0.07407121419441355	47.38350621421631	0	0.9399999999999999	0	34.01418819054493	-9.645306706385334	-9.134875370055211	39.45905592328575	0.6886904455899073	0	0	0	34.01418819054493	-9.645306706385334	-9.134875370055211	39.45905592328575	0.6886904455899073	0	0	0	2.836686893813224	-2.11722433630101	12.28506393345488	100.3626354228949	5.621183823822952	14.39243818312147	21.57688371053867	83.14364501231123	0	0	1.435338443799823	-6.839369174782448	-0.1795136966086522	3.950500367731954	97.60430406856136	0	0
8.679999999999904	4.045537151689965	0.0667133211802404	47.32345072793971	0	0.9399999999999999	0	34.015512547394	-9.645452402177284	-9.135103626115422	39.46036173311541	0.6887132362708399	0	0	0	34.015512547394	-9.645452402177284	-9.135103626115422	39.46036173311541	0.6887132362708399	0	0	0	2.824377156440995	-2.115239529444698	12.27517917140339	100.2879039037344	5.505998335585223	14.32121324194138	21.53815421347274	83.2446892465567	0	0	1.451459705561606	-6.849418238745931	-0.1560602497561492	3.94778436158973	97.6172372832436	0	0
8.699999999999903	4.031343568721833	0.04772176826746042	47.24721515176785	0	0.9399999999999999	0	34.01645943462496	-9.645555908803695	-9.135266154158446	39.46130064746172	0.6887296234175772	0	0	0	34.01645943462496	-9.645555908803695	-9.135266154158446	39.46130064746172	0.6887296234175772	0	0	0	2.800817722488554	-2.119237142063525	12.24552796739915	100.2356689433678	5.480850147390127	14.36016335973506	21.54023500492652	83.26655499860405	0	0	1.493998861081175	-6.872338282855056	-0.2396025906611992	3.946790050476911	97.65005619755914	0	0
8.719999999999903	4.022022441524958	0.03937180085076025	47.15371665493217	0	0.9399999999999999	0	34.01920811973906	-9.645859483832199	-9.135741151532391	39.46399982065491	0.6887767328768798	0	0	0	34.01920811973906	-9.645859483832199	-9.135741151532391	39.46399982065491	0.6887767328768798	0	0	0	2.788378708690136	-2.12007262401642	12.20644992974638	100.1319313719458	5.475646026117743	14.40327534654296	21.61821390755912	83.10211103341102	0	0	1.490088295682719	-6.873518824240016	-0.2759659049596824	3.934384764331059	97.69277152172729	0	0
8.739999999999903	4.026488207012597	0.04566633004197643	47.11067533884069	0	0.9399999999999999	0	34.02186590176753	-9.646152799526812	-9.136200268074473	39.46661009584398	0.6888222907733123	-2.036848929252261e-35	0	0	34.02186590176753	-9.646152799526812	-9.136200268074473	39.46661009584398	0.6888222907733123	-2.036848929252261e-35	0	0	2.796097439313449	-2.118255416142918	12.22379348444735	99.92426262449621	5.309941604400477	14.44323693892347	21.75930541400234	82.89258813589097	0	1.606795794866327e-52	1.432413454788113	-6.875276767659313	-0.126973608388357	3.927273429654466	97.78256487691274	0	1.606795794866327e-52
8.759999999999902	4.027503030203007	0.07176600373058468	47.05790541670733	0	0.9399999999999999	0	34.04196653437554	-9.647666232525594	-9.139048128016251	39.48730999235618	0.6891835721222723	0	0	0	34.04196653437554	-9.647666232525594	-9.139048128016251	39.48730999235618	0.6891835721222723	0	0	0	2.815907200477194	-2.103223076079519	12.18772612459295	99.87930327668661	5.399724307437529	14.454752543457	21.80622433610629	82.8776958846633	0	0	1.363213009366839	-6.848112064077404	-0.1584375365829976	3.919998890756935	97.73433826369074	0	0
8.779999999999902	4.029726925032937	0.1494010081296327	46.9952422675912	0	0.9399999999999999	0	34.04483667924462	-9.647980397846814	-9.139541419734799	39.49014361330994	0.6892330281376688	0	0	0	34.04483667924462	-9.647980397846814	-9.139541419734799	39.49014361330994	0.6892330281376688	0	0	0	2.874266369305962	-2.050850130778886	12.21076781497058	99.46707728181217	5.25057239951912	14.53567912617967	22.04716082627853	82.75662760689478	0	0	1.19816089136453	-6.745947111872686	-0.1472748330298098	3.947374617706148	97.67684511978801	0	0
8.799999999999901	4.055784660639612	0.2222616668913463	46.98428817618555	0	0.9399999999999999	0	34.04832875414763	-9.648360351322987	-9.140139359571233	39.49360747654239	0.6892934839559139	0	0	0	34.04832875414763	-9.648360351322987	-9.140139359571233	39.49360747654239	0.6892934839559139	0	0	0	2.945040920541857	-2.014507537361856	12.32309106366418	98.88585808524941	4.863600929822212	14.42088343487862	22.84726411158978	82.61423469153934	0	0	1.038091417049133	-6.707006332095193	0.03509854839554308	3.963599664920064	97.71688673246351	0	0
8.819999999999901	4.051669930230621	0.2179434071156081	46.95178094778402	0	0.9399999999999999	0	34.04919981722342	-9.648454347124305	-9.140287716617383	39.49447782828256	0.6893086744594303	0	0	0	34.04919981722342	-9.648454347124305	-9.140287716617383	39.49447782828256	0.6893086744594303	0	0	0	2.939077875753735	-2.014461375968343	12.3233995620491	98.90768194685431	4.910487347991841	14.41195254832053	22.87480093093363	82.62726508608398	0	0	1.009506311850918	-6.681772476154031	0.1343273676430735	3.978362728888699	97.72715622577596	0	0
8.8399999999999	4.03794859671139	0.2942908198804561	46.75674327391738	0	0.9399999999999999	0	34.05326682098717	-9.648899697656235	-9.140987109525827	39.49848558216368	0.6893786229602654	0	0	0	34.05326682098717	-9.648899697656235	-9.140987109525827	39.49848558216368	0.6893786229602654	0	0	0	2.98537491026512	-1.946146066845268	12.42659128906184	97.47166636751841	4.295015343998449	14.07921440184366	24.68344497411954	82.87248572425682	0	0	0.8060435218486646	-6.587134778965575	0.2495892411968489	4.065862134415363	97.53962143645698	0	0
